HIERARCHY
ROOT Hips
{
     OFFSET 16.70260 95.31950 -20.80050
     CHANNELS 6 Xposition Yposition Zposition Zrotation Xrotation Yrotation
     JOINT Spine
     {
          OFFSET -0.00000 11.89050 -0.00000
          CHANNELS 3 Zrotation Xrotation Yrotation
          JOINT Spine1
          {
               OFFSET -0.00000 25.65740 0.12766
               CHANNELS 3 Zrotation Xrotation Yrotation
               JOINT HEad
               {
                    OFFSET 0.00000 8.73416 0.01134
                    CHANNELS 3 Zrotation Xrotation Yrotation
                    End Site
                    {
                         OFFSET -0.29000 12.77420 2.51395
                    }
               }
               JOINT LeftShoulder1
               {
                    OFFSET 8.99000 -0.36225 -0.22000
                    CHANNELS 3 Zrotation Xrotation Yrotation
                    JOINT LeftArm
                    {
                         OFFSET 10.28270 -0.00338 0.32212
                         CHANNELS 3 Zrotation Xrotation Yrotation
                         JOINT LeftForeArm
                         {
                              OFFSET 32.76690 0.09914 -1.42434
                              CHANNELS 3 Zrotation Xrotation Yrotation
                              JOINT LeftHand
                              {
                                   OFFSET 27.56430 0.08536 1.02216
                                   CHANNELS 3 Zrotation Xrotation Yrotation
                                   End Site
                                   {
                                        OFFSET 16.74430 -0.60000 1.50291
                                   }
                              }
                         }
                    }
               }
               JOINT RightShoulder
               {
                    OFFSET -8.99000 -0.36225 -0.22000
                    CHANNELS 3 Zrotation Xrotation Yrotation
                    JOINT RightArm
                    {
                         OFFSET -10.28270 -0.00338 0.32212
                         CHANNELS 3 Zrotation Xrotation Yrotation
                         JOINT RightForeArm
                         {
                              OFFSET -32.89710 0.09914 -1.42434
                              CHANNELS 3 Zrotation Xrotation Yrotation
                              JOINT RightHand
                              {
                                   OFFSET -27.49210 0.08536 1.02216
                                   CHANNELS 3 Zrotation Xrotation Yrotation
                                   End Site
                                   {
                                        OFFSET -16.63120 -0.60000 1.50291
                                   }
                              }
                         }
                    }
               }
          }
     }
     JOINT LeftUpLeg
     {
          OFFSET 8.94580 -8.66707 0.10165
          CHANNELS 3 Zrotation Xrotation Yrotation
          JOINT LeftLeg
          {
               OFFSET 0.00000 -44.42270 1.37270
               CHANNELS 3 Zrotation Xrotation Yrotation
               JOINT LeftFoot
               {
                    OFFSET -0.25355 -42.09240 -1.46059
                    CHANNELS 3 Zrotation Xrotation Yrotation
                    JOINT LeftToes
                    {
                         OFFSET -0.04000 -4.41509 8.49910
                         CHANNELS 3 Zrotation Xrotation Yrotation
                         End Site
                         {
                              OFFSET 0.08000 -0.04745 9.77979
                         }
                    }
               }
          }
     }
     JOINT RightUpLeg
     {
          OFFSET -8.94580 -8.66707 0.10165
          CHANNELS 3 Zrotation Xrotation Yrotation
          JOINT RightLeg
          {
               OFFSET -0.00000 -44.42270 1.37270
               CHANNELS 3 Zrotation Xrotation Yrotation
               JOINT RightFoot
               {
                    OFFSET 0.25355 -42.09240 -1.46059
                    CHANNELS 3 Zrotation Xrotation Yrotation
                    JOINT RightToes
                    {
                         OFFSET 0.04000 -4.41509 8.49910
                         CHANNELS 3 Zrotation Xrotation Yrotation
                         End Site
                         {
                              OFFSET -0.08000 -0.13745 9.77979
                         }
                    }
               }
          }
     }
}
MOTION
Frames: 20
Frame Time: 0.01667
-0.53631 93.13430 14.95290 5.67505 -67.94840 -28.07010 -11.61610 13.92670 9.13396 -20.10420 25.59900 28.18560 -15.67940 28.90090 4.55886 -0.00000 0.00000 -0.00000 -70.85100 -16.87060 19.64360 -52.95120 1.64284 -82.88910 11.08680 7.53453 -21.59000 -2.62141 0.64915 22.58890 70.14710 28.10790 56.46140 12.15170 31.78870 77.81670 13.46750 12.27810 14.94880 27.30050 -57.71220 88.80520 115.54300 18.85790 -58.44080 -93.46780 5.14744 13.38460 -58.38040 27.12650 86.89620 -53.16920 32.86080 36.51240 38.81860 20.47740 -42.43010 -23.74550 -12.80060 -1.30543 -0.09379 -8.00671 11.22810 
-0.68773 92.60880 15.74220 5.27381 -69.06120 -28.62610 -11.40930 13.61410 8.33494 -19.57890 25.34200 27.28110 -16.61180 27.68360 6.16666 -0.00000 0.00000 -0.00000 -71.33050 -13.93050 16.07950 -51.57850 -2.60650 -83.28250 9.98626 7.87314 -20.57180 -2.34013 0.70656 22.44860 69.23830 27.84550 57.42190 12.54950 31.94770 77.13850 13.32850 12.24260 14.85100 28.06250 -57.61680 88.93690 115.20700 19.23720 -60.18850 -90.87760 4.10860 11.77730 -59.66290 28.57460 86.74390 -54.26350 32.83480 37.17570 39.65350 22.44880 -43.11710 -24.48000 -13.09650 -1.40832 0.55689 -11.52550 10.65060 
-1.06367 92.28850 16.37790 3.82926 -68.97700 -29.85430 -11.03960 13.12650 7.45421 -18.54770 24.85020 25.70610 -16.85710 26.26470 7.18286 -0.00000 0.00000 -0.00000 -70.85240 -11.67080 12.59400 -50.16040 -5.54246 -83.68780 9.01642 8.16307 -19.54990 -1.94732 0.78102 22.08920 68.36240 27.53420 58.52570 12.72860 32.06630 76.55500 12.93290 12.17290 14.82320 30.19420 -57.38180 89.74540 115.16000 19.49290 -61.44510 -88.97310 3.76734 11.07030 -60.42280 29.62670 86.47250 -53.89090 32.94570 37.04210 40.34910 23.49890 -43.47610 -25.07270 -13.30930 -1.48835 0.96223 -13.79710 10.27130 
-1.57547 92.19580 16.83780 1.66212 -67.99510 -31.64170 -10.54130 12.54880 6.59998 -17.18840 24.24420 23.70970 -16.58870 24.92340 7.63098 -0.00000 0.00000 -0.00000 -69.59990 -10.66070 9.58290 -49.23730 -6.82169 -83.92130 8.53598 8.30970 -18.90230 -1.49308 0.85871 21.50840 67.67060 27.21980 59.54040 12.81870 32.11770 76.07680 12.49190 12.08890 14.73470 33.09270 -56.72940 91.04500 115.25800 19.54020 -61.82220 -87.97820 4.23077 11.31570 -60.67450 30.21950 86.14540 -52.50410 33.09270 36.21930 40.86830 23.77770 -43.51000 -25.50240 -13.29860 -1.50847 1.17598 -15.03450 10.24950 
-2.13019 92.32370 17.10640 -0.63402 -66.52260 -33.64150 -10.00410 11.98280 5.86735 -15.74900 23.66260 21.55740 -16.10430 23.82170 7.80588 -0.00000 0.00000 -0.00000 -67.83350 -11.06620 7.11727 -48.89620 -6.47074 -83.87150 8.65284 8.29943 -18.71190 -1.01983 0.92893 20.74540 67.23310 26.90450 60.34280 12.93840 32.10640 75.66180 12.14630 12.01020 14.54800 35.90300 -55.38340 92.40370 115.29800 19.46260 -61.26520 -87.66460 5.35491 12.30070 -60.65910 30.52200 85.83270 -50.73570 33.14170 35.02750 41.19610 23.46360 -43.14190 -25.81620 -12.92170 -1.43389 1.26382 -15.55390 10.56510 
-2.66894 92.65090 17.19340 -2.65727 -64.86510 -35.64360 -9.51939 11.50800 5.31992 -14.42220 23.20270 19.45640 -15.66550 22.96770 8.04094 -0.00000 0.00000 -0.00000 -65.82010 -12.65830 5.06965 -48.72160 -4.85818 -83.58420 9.21050 8.17770 -18.82610 -0.53210 0.99166 19.88780 67.00830 26.55830 60.90820 13.12380 32.05820 75.28660 11.91630 11.94710 14.32110 38.04090 -53.22530 93.40260 115.12500 19.51090 -60.18150 -87.43540 6.74150 13.53430 -60.78870 30.80090 85.69300 -49.05770 33.01760 33.78660 41.32580 22.67460 -42.34230 -26.11180 -12.13240 -1.25576 1.27878 -15.65500 11.07810 
-3.16243 93.15650 17.12900 -4.25182 -63.10840 -37.55970 -9.15748 11.15330 4.98959 -13.27220 22.87400 17.51530 -15.39840 22.28530 8.51581 -0.00000 0.00000 -0.00000 -63.73890 -15.08160 3.26831 -48.32050 -2.42226 -83.18980 9.95568 8.01055 -19.00840 -0.00180 1.05531 19.04210 66.89190 26.13690 61.24920 13.34380 31.98170 74.97120 11.76810 11.90290 14.13890 39.34580 -50.33720 93.66350 114.66700 20.03070 -58.90940 -87.20500 7.99002 14.62740 -61.07590 30.89690 85.89370 -47.60030 32.71500 32.68870 41.24900 21.39090 -41.21000 -26.45440 -10.98100 -0.98610 1.25289 -15.53240 11.62440 
-3.59072 93.81590 16.94510 -5.37471 -61.20720 -39.30300 -8.99284 10.90640 4.88553 -12.27020 22.63060 15.76650 -15.27390 21.65710 9.20586 -0.00000 0.00000 -0.00000 -61.67380 -18.04180 1.56712 -47.75680 0.53090 -82.75540 10.72400 7.84289 -19.11340 0.57002 1.12245 18.27890 66.81970 25.59310 61.39400 13.55630 31.87510 74.74430 11.68610 11.88040 14.05340 39.84200 -46.88610 92.76170 113.90300 21.34690 -56.97810 -88.02640 9.04203 15.81380 -60.69200 29.94130 86.43700 -46.27850 32.27820 31.82570 40.97270 19.49440 -39.91110 -26.83190 -9.57820 -0.64807 1.18581 -15.19640 12.08980 
-3.92833 94.59460 16.66200 -6.04493 -59.15650 -40.79300 -9.11451 10.75310 4.99723 -11.38110 22.45680 14.22260 -15.16560 20.96330 9.94054 -0.00000 0.00000 -0.00000 -59.69650 -21.25820 -0.20106 -47.36900 3.77195 -82.28370 11.50540 7.67851 -19.13890 1.13906 1.18546 17.58970 66.79280 24.89040 61.40930 13.75390 31.74260 74.60730 11.67460 11.87880 14.05630 39.51390 -43.06110 90.37110 112.78500 23.67600 -53.48000 -90.74880 10.25460 17.74830 -58.82880 27.42930 87.04880 -45.04210 31.80080 31.25200 40.53830 16.88090 -38.54820 -27.20600 -8.03231 -0.26542 1.04758 -14.49800 12.43420 
-4.14721 95.45640 16.29170 -6.33439 -57.05390 -42.00920 -9.59944 10.69260 5.30045 -10.61010 22.38800 12.90550 -14.98700 20.16470 10.53760 -0.00000 0.00000 -0.00000 -57.89840 -24.48660 -2.22646 -47.35300 7.08237 -81.77190 12.33930 7.50499 -19.14120 1.66438 1.23516 16.91470 66.81660 24.01040 61.40020 13.96070 31.57470 74.53580 11.73410 11.89330 14.10160 38.34780 -39.06990 86.45590 111.21100 27.17810 -48.50540 -94.37540 11.89230 20.56850 -55.96260 24.27980 87.38040 -43.99570 31.41340 31.01520 40.02290 13.49410 -37.11520 -27.57040 -6.37205 0.15554 0.80697 -13.28240 12.68720 
-4.23794 96.38090 15.84850 -6.30280 -55.05020 -42.97420 -10.50400 10.71150 5.77200 -9.98991 22.45440 11.82470 -14.78570 19.31860 10.92180 -0.00000 0.00000 -0.00000 -56.37810 -27.63910 -4.62767 -47.62690 10.29950 -81.22070 13.19190 7.32386 -19.17310 2.10703 1.26312 16.20320 66.87650 22.96460 61.47590 14.15700 31.34090 74.53640 11.85340 11.91660 14.13840 36.45620 -35.04070 81.13520 109.05700 32.08990 -43.62820 -96.92620 13.55770 23.26080 -53.54980 21.89820 87.45300 -43.37890 31.26830 31.18940 39.52350 9.22502 -35.53170 -28.01430 -4.50488 0.64167 0.46257 -11.54760 12.89820 
-4.21666 97.36500 15.36240 -5.96947 -53.27070 -43.70440 -11.83960 10.76790 6.37857 -9.53628 22.64220 10.94750 -14.67780 18.48800 11.12710 -0.00000 0.00000 -0.00000 -55.21920 -30.78710 -7.39421 -47.97360 13.39660 -80.62770 13.99760 7.14318 -19.27560 2.41186 1.25940 15.41430 66.95220 21.80800 61.73260 14.23330 31.02150 74.68200 12.00710 11.93910 14.11860 34.10420 -30.99310 74.53040 106.20100 38.74370 -41.03710 -96.73990 14.39160 24.06990 -53.01320 21.28300 87.57780 -43.50090 31.58030 31.90860 39.15670 3.74477 -33.63330 -28.75590 -2.21247 1.26741 0.04395 -9.43794 13.06180 
-4.09982 98.31060 14.88860 -5.23318 -51.82020 -44.18930 -13.76200 10.87820 7.16653 -9.28547 22.96490 10.20790 -14.72660 17.68960 11.23020 -0.00000 0.00000 -0.00000 -54.45370 -34.06610 -10.43300 -48.24620 16.46520 -79.97680 14.74210 6.96304 -19.46060 2.55456 1.22105 14.52200 67.02320 20.60870 62.24220 14.07460 30.63620 75.04000 12.14410 11.95010 14.02090 31.57830 -27.03130 66.96510 102.46700 47.33620 -42.67400 -92.09540 13.54050 21.40630 -55.81790 23.56360 88.01080 -43.67670 30.99720 32.16730 39.14740 0.27696 -32.14160 -29.04690 -0.80561 1.65554 -0.40837 -7.11903 13.10990 
-3.87731 98.82400 14.50660 -3.67067 -50.84940 -44.35560 -16.91170 11.15060 8.40103 -9.23338 23.41630 9.50934 -14.89290 16.93610 11.32050 -0.00000 0.00000 -0.00000 -54.05960 -37.54220 -13.64010 -48.43610 19.56690 -79.26990 15.44280 6.78339 -19.69040 2.58719 1.16289 13.58970 67.08810 19.37590 62.99250 13.67950 30.23070 75.59160 12.20090 11.94170 13.86770 28.88950 -23.56590 59.22750 97.49580 57.57040 -49.03600 -80.65210 11.09860 15.59710 -63.49070 31.07800 88.14670 -43.87830 28.85120 31.79050 39.18270 -0.06829 -31.30780 -28.44450 -0.61601 1.66613 -0.85104 -4.74253 12.97910 
-3.50777 99.28610 14.27360 -2.13442 -49.72320 -44.19410 -19.52320 11.27820 9.18834 -8.99701 23.66270 8.69185 -15.05790 16.27020 11.49680 -0.00000 0.00000 -0.00000 -53.97030 -41.12460 -16.92260 -48.60630 22.64760 -78.56770 16.11330 6.61010 -19.89800 2.62419 1.11355 12.78560 67.16510 18.03820 63.85400 13.18450 29.84330 76.25240 12.15500 11.91440 13.69100 26.26740 -20.50450 51.66110 87.71950 68.60290 -53.70190 -61.38010 10.19390 10.41170 -72.91960 46.87180 83.68270 -43.88410 26.82740 31.28470 39.14840 -0.43405 -30.41960 -27.72380 -0.24555 1.71242 -1.23899 -2.48973 12.67020 
-3.02892 99.72000 14.26250 -0.91312 -48.26920 -43.87860 -21.16870 11.23140 9.46849 -8.56905 23.64710 7.71034 -15.09450 15.73940 11.79560 -0.00000 0.00000 -0.00000 -54.13900 -44.63780 -20.26490 -48.85700 25.62640 -77.91610 16.77770 6.44382 -20.04740 2.77018 1.09155 12.19330 67.27150 16.53880 64.69110 12.77340 29.49460 76.95140 12.05090 11.87570 13.49210 23.59590 -17.10190 44.22340 59.48350 78.00620 -35.21610 -41.67980 14.16500 8.13692 -62.37700 66.32370 58.01050 -43.49110 24.98750 30.61680 39.10390 -0.80151 -29.49240 -26.92330 0.30785 1.79297 -1.54806 -0.49810 12.24850 
-2.50673 100.10300 14.44000 -0.12882 -46.43130 -43.50360 -21.84980 11.06010 9.34499 -7.96726 23.43180 6.63711 -14.92620 15.34150 12.07780 -0.00000 0.00000 -0.00000 -54.74480 -47.94810 -23.92370 -49.31440 28.50410 -77.24100 17.47340 6.27414 -20.15960 3.02691 1.07627 11.53230 67.42950 14.99910 65.54210 12.53190 29.19790 77.69370 11.95890 11.83550 13.25970 21.12240 -13.45850 36.88530 -0.09101 78.62400 21.04840 -28.16260 18.88450 6.48411 -6.53692 68.51570 -10.17950 -42.59730 23.35510 29.75050 39.07960 -1.16866 -28.51080 -26.07730 1.02432 1.90056 -1.80724 1.34387 11.78420 
-1.94404 100.43600 14.72060 0.21951 -44.23950 -43.05340 -21.64730 10.93080 8.90500 -7.20432 23.21320 5.62641 -14.54120 15.01020 12.10990 -0.00000 0.00000 -0.00000 -56.25650 -51.00230 -28.42000 -50.05770 31.36200 -76.39740 18.21820 6.09064 -20.27890 3.30413 1.01889 10.30580 67.68120 13.68160 66.58650 12.39430 28.95280 78.56120 11.92010 11.80110 13.00310 18.90750 -10.06400 29.74150 -29.34440 70.79530 50.15220 -19.59450 21.65470 4.89016 16.54540 52.29660 -43.41700 -41.20990 21.93760 28.64680 39.05870 -1.56824 -27.41930 -25.09980 1.89339 2.02058 -2.09093 3.42150 11.32230 
-1.33089 100.71500 15.02190 0.09635 -41.68440 -42.56490 -20.58700 10.96470 8.18279 -6.30463 23.12550 4.76746 -14.03410 14.69270 11.85290 -0.00000 0.00000 -0.00000 -59.04410 -53.81220 -34.06130 -51.06970 34.29340 -75.31640 18.98840 5.89375 -20.43160 3.56347 0.90792 8.46798 68.05920 12.64770 67.85050 12.21560 28.73740 79.64520 11.91370 11.77150 12.74550 18.17180 -5.68118 18.34300 -45.96440 55.92440 70.05640 -10.32100 26.25760 2.88236 20.24160 26.81170 -60.89820 -39.29100 20.72390 27.19300 39.01790 -2.03206 -26.12420 -23.88220 2.93295 2.13935 -2.46635 6.06148 10.94090 
-0.65113 100.92800 15.34000 -0.59362 -38.71370 -42.21550 -18.50200 11.12110 7.17782 -5.27650 23.12460 4.03317 -13.61020 14.40700 11.53770 -0.00000 0.00000 -0.00000 -63.02960 -56.43130 -40.61380 -52.26510 37.34010 -74.06230 19.74990 5.69004 -20.61930 3.83378 0.78880 6.61810 68.59890 11.64070 69.10990 11.83740 28.53250 80.98060 11.86290 11.73740 12.50530 17.23350 -2.81096 9.12263 -49.20260 43.81420 75.62120 -6.87494 26.96750 1.89845 18.46270 15.10250 -65.67340 -36.80280 19.64310 25.26850 38.96690 -2.53427 -24.51810 -22.29270 4.22156 2.24659 -2.96377 9.22388 10.80600 
